<?xml version="1.0" encoding="UTF-8" standalone="no"?>
<!DOCTYPE svg PUBLIC "-//W3C//DTD SVG 1.1//EN"
 "http://www.w3.org/Graphics/SVG/1.1/DTD/svg11.dtd">
<!-- Generated by graphviz version 12.2.1 (20241206.2353)
 -->
<!-- Title: G Pages: 1 -->
<svg width="3203pt" height="455pt"
 viewBox="0.00 0.00 3202.70 455.08" xmlns="http://www.w3.org/2000/svg" xmlns:xlink="http://www.w3.org/1999/xlink">
<g id="graph0" class="graph" transform="scale(1 1) rotate(0) translate(21.6 433.48)">
<title>G</title>
<polygon fill="#111111" stroke="none" points="-21.6,21.6 -21.6,-433.48 3181.1,-433.48 3181.1,21.6 -21.6,21.6"/>
<!-- ../1shared/api/divisions.api.ts -->
<g id="node1" class="node">
<title>../1shared/api/divisions.api.ts</title>
<path fill="none" stroke="#ff6c60" d="M1128.21,-331.75C1128.21,-331.75 954.79,-331.75 954.79,-331.75 950.83,-331.75 946.88,-327.79 946.88,-323.83 946.88,-323.83 946.88,-315.92 946.88,-315.92 946.88,-311.96 950.83,-308 954.79,-308 954.79,-308 1128.21,-308 1128.21,-308 1132.17,-308 1136.12,-311.96 1136.12,-315.92 1136.12,-315.92 1136.12,-323.83 1136.12,-323.83 1136.12,-327.79 1132.17,-331.75 1128.21,-331.75"/>
<text text-anchor="middle" x="1041.5" y="-314.45" font-family="Arial" font-size="14.00" fill="#ff6c60">../1shared/api/divisions.api.ts</text>
</g>
<!-- ../1shared/database/index.ts -->
<g id="node2" class="node">
<title>../1shared/database/index.ts</title>
<path fill="none" stroke="#ff6c60" d="M1444.96,-261.75C1444.96,-261.75 1275.29,-261.75 1275.29,-261.75 1271.33,-261.75 1267.38,-257.79 1267.38,-253.83 1267.38,-253.83 1267.38,-245.92 1267.38,-245.92 1267.38,-241.96 1271.33,-238 1275.29,-238 1275.29,-238 1444.96,-238 1444.96,-238 1448.92,-238 1452.88,-241.96 1452.88,-245.92 1452.88,-245.92 1452.88,-253.83 1452.88,-253.83 1452.88,-257.79 1448.92,-261.75 1444.96,-261.75"/>
<text text-anchor="middle" x="1360.12" y="-244.45" font-family="Arial" font-size="14.00" fill="#ff6c60">../1shared/database/index.ts</text>
</g>
<!-- ../1shared/api/divisions.api.ts&#45;&gt;../1shared/database/index.ts -->
<g id="edge1" class="edge">
<title>../1shared/api/divisions.api.ts&#45;&gt;../1shared/database/index.ts</title>
<path fill="none" stroke="#757575" d="M1098.38,-307.52C1152.47,-295.56 1234.52,-277.42 1292.1,-264.69"/>
<polygon fill="#757575" stroke="#757575" points="1292.79,-268.13 1301.8,-262.55 1291.28,-261.29 1292.79,-268.13"/>
</g>
<!-- ../1shared/database/commonWorks.schema.ts -->
<g id="node8" class="node">
<title>../1shared/database/commonWorks.schema.ts</title>
<path fill="none" stroke="#cfffac" d="M2126.08,-307.75C2126.08,-307.75 1845.42,-307.75 1845.42,-307.75 1841.46,-307.75 1837.5,-303.79 1837.5,-299.83 1837.5,-299.83 1837.5,-291.92 1837.5,-291.92 1837.5,-287.96 1841.46,-284 1845.42,-284 1845.42,-284 2126.08,-284 2126.08,-284 2130.04,-284 2134,-287.96 2134,-291.92 2134,-291.92 2134,-299.83 2134,-299.83 2134,-303.79 2130.04,-307.75 2126.08,-307.75"/>
<text text-anchor="middle" x="1985.75" y="-290.45" font-family="Arial" font-size="14.00" fill="#cfffac">../1shared/database/commonWorks.schema.ts</text>
</g>
<!-- ../1shared/database/index.ts&#45;&gt;../1shared/database/commonWorks.schema.ts -->
<g id="edge5" class="edge">
<title>../1shared/database/index.ts&#45;&gt;../1shared/database/commonWorks.schema.ts</title>
<path fill="none" stroke="#757575" d="M1453.14,-256.66C1551.12,-263.89 1708,-275.46 1825.99,-284.16"/>
<polygon fill="#757575" stroke="#757575" points="1825.55,-287.64 1835.78,-284.89 1826.06,-280.66 1825.55,-287.64"/>
</g>
<!-- ../1shared/database/credentials.schema.ts -->
<g id="node9" class="node">
<title>../1shared/database/credentials.schema.ts</title>
<path fill="none" stroke="#c6c5fe" d="M1793.58,-109.75C1793.58,-109.75 1539.17,-109.75 1539.17,-109.75 1535.21,-109.75 1531.25,-105.79 1531.25,-101.83 1531.25,-101.83 1531.25,-93.92 1531.25,-93.92 1531.25,-89.96 1535.21,-86 1539.17,-86 1539.17,-86 1793.58,-86 1793.58,-86 1797.54,-86 1801.5,-89.96 1801.5,-93.92 1801.5,-93.92 1801.5,-101.83 1801.5,-101.83 1801.5,-105.79 1797.54,-109.75 1793.58,-109.75"/>
<text text-anchor="middle" x="1666.38" y="-92.45" font-family="Arial" font-size="14.00" fill="#c6c5fe">../1shared/database/credentials.schema.ts</text>
</g>
<!-- ../1shared/database/index.ts&#45;&gt;../1shared/database/credentials.schema.ts -->
<g id="edge6" class="edge">
<title>../1shared/database/index.ts&#45;&gt;../1shared/database/credentials.schema.ts</title>
<path fill="none" stroke="#757575" d="M1453.06,-248.95C1468.42,-245.2 1483.24,-238.95 1495.25,-228.88 1533.05,-197.17 1494.03,-156.26 1531.25,-123.88 1534.72,-120.85 1538.44,-118.14 1542.35,-115.7"/>
<polygon fill="#757575" stroke="#757575" points="1543.98,-118.8 1551.08,-110.94 1540.63,-112.66 1543.98,-118.8"/>
</g>
<!-- ../1shared/database/users.schema.ts -->
<g id="node10" class="node">
<title>../1shared/database/users.schema.ts</title>
<path fill="none" stroke="#c6c5fe" d="M2096.83,-109.75C2096.83,-109.75 1874.67,-109.75 1874.67,-109.75 1870.71,-109.75 1866.75,-105.79 1866.75,-101.83 1866.75,-101.83 1866.75,-93.92 1866.75,-93.92 1866.75,-89.96 1870.71,-86 1874.67,-86 1874.67,-86 2096.83,-86 2096.83,-86 2100.79,-86 2104.75,-89.96 2104.75,-93.92 2104.75,-93.92 2104.75,-101.83 2104.75,-101.83 2104.75,-105.79 2100.79,-109.75 2096.83,-109.75"/>
<text text-anchor="middle" x="1985.75" y="-92.45" font-family="Arial" font-size="14.00" fill="#c6c5fe">../1shared/database/users.schema.ts</text>
</g>
<!-- ../1shared/database/index.ts&#45;&gt;../1shared/database/users.schema.ts -->
<g id="edge9" class="edge">
<title>../1shared/database/index.ts&#45;&gt;../1shared/database/users.schema.ts</title>
<path fill="none" stroke="#757575" d="M1453.2,-250.06C1468.73,-246.25 1483.57,-239.68 1495.25,-228.88 1546.2,-181.72 1476.8,-119.94 1531.25,-76.88 1654.88,20.9 1862.11,-46.9 1946.87,-81.26"/>
<polygon fill="#757575" stroke="#757575" points="1945.32,-84.4 1955.9,-84.98 1947.99,-77.93 1945.32,-84.4"/>
</g>
<!-- ../1shared/database/divisions.schema.ts -->
<g id="node11" class="node">
<title>../1shared/database/divisions.schema.ts</title>
<path fill="none" stroke="#cfffac" d="M2418.83,-187.75C2418.83,-187.75 2177.92,-187.75 2177.92,-187.75 2173.96,-187.75 2170,-183.79 2170,-179.83 2170,-179.83 2170,-171.92 2170,-171.92 2170,-167.96 2173.96,-164 2177.92,-164 2177.92,-164 2418.83,-164 2418.83,-164 2422.79,-164 2426.75,-167.96 2426.75,-171.92 2426.75,-171.92 2426.75,-179.83 2426.75,-179.83 2426.75,-183.79 2422.79,-187.75 2418.83,-187.75"/>
<text text-anchor="middle" x="2298.38" y="-170.45" font-family="Arial" font-size="14.00" fill="#cfffac">../1shared/database/divisions.schema.ts</text>
</g>
<!-- ../1shared/database/index.ts&#45;&gt;../1shared/database/divisions.schema.ts -->
<g id="edge7" class="edge">
<title>../1shared/database/index.ts&#45;&gt;../1shared/database/divisions.schema.ts</title>
<path fill="none" stroke="#757575" d="M1453.31,-238.13C1467.46,-235.56 1481.82,-232.49 1495.25,-228.88 1511.83,-224.41 1514.65,-219.24 1531.25,-214.88 1744.57,-158.86 2002.5,-159 2158.06,-166.08"/>
<polygon fill="#757575" stroke="#757575" points="2157.88,-169.57 2168.03,-166.55 2158.21,-162.58 2157.88,-169.57"/>
</g>
<!-- ../1shared/database/ppr.schema.ts -->
<g id="node12" class="node">
<title>../1shared/database/ppr.schema.ts</title>
<path fill="none" stroke="#ff6c60" d="M1770.33,-247.75C1770.33,-247.75 1562.42,-247.75 1562.42,-247.75 1558.46,-247.75 1554.5,-243.79 1554.5,-239.83 1554.5,-239.83 1554.5,-231.92 1554.5,-231.92 1554.5,-227.96 1558.46,-224 1562.42,-224 1562.42,-224 1770.33,-224 1770.33,-224 1774.29,-224 1778.25,-227.96 1778.25,-231.92 1778.25,-231.92 1778.25,-239.83 1778.25,-239.83 1778.25,-243.79 1774.29,-247.75 1770.33,-247.75"/>
<text text-anchor="middle" x="1666.38" y="-230.45" font-family="Arial" font-size="14.00" fill="#ff6c60">../1shared/database/ppr.schema.ts</text>
</g>
<!-- ../1shared/database/index.ts&#45;&gt;../1shared/database/ppr.schema.ts -->
<g id="edge8" class="edge">
<title>../1shared/database/index.ts&#45;&gt;../1shared/database/ppr.schema.ts</title>
<path fill="none" stroke="#757575" d="M1453.24,-245.64C1481.46,-244.34 1512.97,-242.89 1542.89,-241.51"/>
<polygon fill="#757575" stroke="#757575" points="1542.93,-245.01 1552.75,-241.06 1542.6,-238.02 1542.93,-245.01"/>
</g>
<!-- ../1shared/auth/authConfig.ts -->
<g id="node3" class="node">
<title>../1shared/auth/authConfig.ts</title>
<path fill="none" stroke="#c6c5fe" d="M347.71,-271.75C347.71,-271.75 174.29,-271.75 174.29,-271.75 170.33,-271.75 166.38,-267.79 166.38,-263.83 166.38,-263.83 166.38,-255.92 166.38,-255.92 166.38,-251.96 170.33,-248 174.29,-248 174.29,-248 347.71,-248 347.71,-248 351.67,-248 355.62,-251.96 355.62,-255.92 355.62,-255.92 355.62,-263.83 355.62,-263.83 355.62,-267.79 351.67,-271.75 347.71,-271.75"/>
<text text-anchor="middle" x="261" y="-254.45" font-family="Arial" font-size="14.00" fill="#c6c5fe">../1shared/auth/authConfig.ts</text>
</g>
<!-- ../2entities/login/index.ts -->
<g id="node4" class="node">
<title>../2entities/login/index.ts</title>
<path fill="none" stroke="#c6c5fe" d="M725.58,-271.75C725.58,-271.75 581.42,-271.75 581.42,-271.75 577.46,-271.75 573.5,-267.79 573.5,-263.83 573.5,-263.83 573.5,-255.92 573.5,-255.92 573.5,-251.96 577.46,-248 581.42,-248 581.42,-248 725.58,-248 725.58,-248 729.54,-248 733.5,-251.96 733.5,-255.92 733.5,-255.92 733.5,-263.83 733.5,-263.83 733.5,-267.79 729.54,-271.75 725.58,-271.75"/>
<text text-anchor="middle" x="653.5" y="-254.45" font-family="Arial" font-size="14.00" fill="#c6c5fe">../2entities/login/index.ts</text>
</g>
<!-- ../1shared/auth/authConfig.ts&#45;&gt;../2entities/login/index.ts -->
<g id="edge2" class="edge">
<title>../1shared/auth/authConfig.ts&#45;&gt;../2entities/login/index.ts</title>
<path fill="none" stroke="#757575" d="M356.03,-259.88C418.49,-259.88 500.06,-259.88 561.82,-259.88"/>
<polygon fill="#757575" stroke="#757575" points="561.6,-263.38 571.6,-259.88 561.6,-256.38 561.6,-263.38"/>
</g>
<!-- ../2entities/user/index.ts -->
<g id="node5" class="node">
<title>../2entities/user/index.ts</title>
<path fill="none" stroke="#ff6c60" d="M2612.58,-327.75C2612.58,-327.75 2470.67,-327.75 2470.67,-327.75 2466.71,-327.75 2462.75,-323.79 2462.75,-319.83 2462.75,-319.83 2462.75,-311.92 2462.75,-311.92 2462.75,-307.96 2466.71,-304 2470.67,-304 2470.67,-304 2612.58,-304 2612.58,-304 2616.54,-304 2620.5,-307.96 2620.5,-311.92 2620.5,-311.92 2620.5,-319.83 2620.5,-319.83 2620.5,-323.79 2616.54,-327.75 2612.58,-327.75"/>
<text text-anchor="middle" x="2541.62" y="-310.45" font-family="Arial" font-size="14.00" fill="#ff6c60">../2entities/user/index.ts</text>
</g>
<!-- ../1shared/auth/authConfig.ts&#45;&gt;../2entities/user/index.ts -->
<g id="edge3" class="edge">
<title>../1shared/auth/authConfig.ts&#45;&gt;../2entities/user/index.ts</title>
<path fill="none" stroke="#757575" d="M311.27,-272.18C433.75,-301.66 762.18,-373.88 1040.5,-373.88 1040.5,-373.88 1040.5,-373.88 1361.12,-373.88 1768.44,-373.88 2253.91,-338.94 2450.93,-323.3"/>
<polygon fill="#757575" stroke="#757575" points="2451.16,-326.79 2460.85,-322.51 2450.61,-319.81 2451.16,-326.79"/>
</g>
<!-- ../2entities/login/model/credentials.actions.ts -->
<g id="node22" class="node">
<title>../2entities/login/model/credentials.actions.ts</title>
<path fill="none" stroke="#c6c5fe" d="M1173.96,-261.75C1173.96,-261.75 909.04,-261.75 909.04,-261.75 905.08,-261.75 901.12,-257.79 901.12,-253.83 901.12,-253.83 901.12,-245.92 901.12,-245.92 901.12,-241.96 905.08,-238 909.04,-238 909.04,-238 1173.96,-238 1173.96,-238 1177.92,-238 1181.88,-241.96 1181.88,-245.92 1181.88,-245.92 1181.88,-253.83 1181.88,-253.83 1181.88,-257.79 1177.92,-261.75 1173.96,-261.75"/>
<text text-anchor="middle" x="1041.5" y="-244.45" font-family="Arial" font-size="14.00" fill="#c6c5fe">../2entities/login/model/credentials.actions.ts</text>
</g>
<!-- ../2entities/login/index.ts&#45;&gt;../2entities/login/model/credentials.actions.ts -->
<g id="edge22" class="edge">
<title>../2entities/login/index.ts&#45;&gt;../2entities/login/model/credentials.actions.ts</title>
<path fill="none" stroke="#757575" d="M733.54,-257.83C778.43,-256.66 836.14,-255.17 889.38,-253.79"/>
<polygon fill="#757575" stroke="#757575" points="889.24,-257.29 899.15,-253.54 889.06,-250.3 889.24,-257.29"/>
</g>
<!-- ../2entities/user/lib/const.ts -->
<g id="node15" class="node">
<title>../2entities/user/lib/const.ts</title>
<path fill="none" stroke="#c6c5fe" d="M2855.46,-207.75C2855.46,-207.75 2696.29,-207.75 2696.29,-207.75 2692.33,-207.75 2688.38,-203.79 2688.38,-199.83 2688.38,-199.83 2688.38,-191.92 2688.38,-191.92 2688.38,-187.96 2692.33,-184 2696.29,-184 2696.29,-184 2855.46,-184 2855.46,-184 2859.42,-184 2863.38,-187.96 2863.38,-191.92 2863.38,-191.92 2863.38,-199.83 2863.38,-199.83 2863.38,-203.79 2859.42,-207.75 2855.46,-207.75"/>
<text text-anchor="middle" x="2775.88" y="-190.45" font-family="Arial" font-size="14.00" fill="#c6c5fe">../2entities/user/lib/const.ts</text>
</g>
<!-- ../2entities/user/index.ts&#45;&gt;../2entities/user/lib/const.ts -->
<g id="edge29" class="edge">
<title>../2entities/user/index.ts&#45;&gt;../2entities/user/lib/const.ts</title>
<path fill="none" stroke="#757575" d="M2563.84,-303.67C2586.56,-290.7 2623.78,-269.78 2656.5,-252.88 2683.56,-238.89 2714.6,-223.98 2738.11,-212.92"/>
<polygon fill="#757575" stroke="#757575" points="2739.39,-216.18 2746.96,-208.77 2736.42,-209.85 2739.39,-216.18"/>
</g>
<!-- ../2entities/user/model/user.types.ts -->
<g id="node16" class="node">
<title>../2entities/user/model/user.types.ts</title>
<path fill="none" stroke="#cfffac" d="M3151.58,-207.75C3151.58,-207.75 2939.17,-207.75 2939.17,-207.75 2935.21,-207.75 2931.25,-203.79 2931.25,-199.83 2931.25,-199.83 2931.25,-191.92 2931.25,-191.92 2931.25,-187.96 2935.21,-184 2939.17,-184 2939.17,-184 3151.58,-184 3151.58,-184 3155.54,-184 3159.5,-187.96 3159.5,-191.92 3159.5,-191.92 3159.5,-199.83 3159.5,-199.83 3159.5,-203.79 3155.54,-207.75 3151.58,-207.75"/>
<text text-anchor="middle" x="3045.38" y="-190.45" font-family="Arial" font-size="14.00" fill="#cfffac">../2entities/user/model/user.types.ts</text>
</g>
<!-- ../2entities/user/index.ts&#45;&gt;../2entities/user/model/user.types.ts -->
<g id="edge31" class="edge">
<title>../2entities/user/index.ts&#45;&gt;../2entities/user/model/user.types.ts</title>
<path fill="none" stroke="#757575" d="M2593.96,-303.6C2686.55,-281.45 2881.19,-234.9 2981.56,-210.9"/>
<polygon fill="#757575" stroke="#757575" points="2982.35,-214.31 2991.26,-208.58 2980.72,-207.5 2982.35,-214.31"/>
</g>
<!-- ../2entities/user/model/user.actions.ts -->
<g id="node24" class="node">
<title>../2entities/user/model/user.actions.ts</title>
<path fill="none" stroke="#ff6c60" d="M2887.33,-347.75C2887.33,-347.75 2664.42,-347.75 2664.42,-347.75 2660.46,-347.75 2656.5,-343.79 2656.5,-339.83 2656.5,-339.83 2656.5,-331.92 2656.5,-331.92 2656.5,-327.96 2660.46,-324 2664.42,-324 2664.42,-324 2887.33,-324 2887.33,-324 2891.29,-324 2895.25,-327.96 2895.25,-331.92 2895.25,-331.92 2895.25,-339.83 2895.25,-339.83 2895.25,-343.79 2891.29,-347.75 2887.33,-347.75"/>
<text text-anchor="middle" x="2775.88" y="-330.45" font-family="Arial" font-size="14.00" fill="#ff6c60">../2entities/user/model/user.actions.ts</text>
</g>
<!-- ../2entities/user/index.ts&#45;&gt;../2entities/user/model/user.actions.ts -->
<g id="edge30" class="edge">
<title>../2entities/user/index.ts&#45;&gt;../2entities/user/model/user.actions.ts</title>
<path fill="none" stroke="#757575" d="M2620.93,-316.2C2644.13,-317.78 2669.59,-319.95 2693.01,-322.34"/>
<polygon fill="#757575" stroke="#757575" points="2692.51,-325.81 2702.82,-323.38 2693.24,-318.85 2692.51,-325.81"/>
</g>
<!-- ../1shared/const/date.ts -->
<g id="node6" class="node">
<title>../1shared/const/date.ts</title>
<path fill="none" stroke="#cfffac" d="M2611.83,-247.75C2611.83,-247.75 2471.42,-247.75 2471.42,-247.75 2467.46,-247.75 2463.5,-243.79 2463.5,-239.83 2463.5,-239.83 2463.5,-231.92 2463.5,-231.92 2463.5,-227.96 2467.46,-224 2471.42,-224 2471.42,-224 2611.83,-224 2611.83,-224 2615.79,-224 2619.75,-227.96 2619.75,-231.92 2619.75,-231.92 2619.75,-239.83 2619.75,-239.83 2619.75,-243.79 2615.79,-247.75 2611.83,-247.75"/>
<text text-anchor="middle" x="2541.62" y="-230.45" font-family="Arial" font-size="14.00" fill="#cfffac">../1shared/const/date.ts</text>
</g>
<!-- ../1shared/const/routes.ts -->
<g id="node7" class="node">
<title>../1shared/const/routes.ts</title>
<path fill="none" stroke="#cfffac" d="M1435.96,-149.75C1435.96,-149.75 1284.29,-149.75 1284.29,-149.75 1280.33,-149.75 1276.38,-145.79 1276.38,-141.83 1276.38,-141.83 1276.38,-133.92 1276.38,-133.92 1276.38,-129.96 1280.33,-126 1284.29,-126 1284.29,-126 1435.96,-126 1435.96,-126 1439.92,-126 1443.88,-129.96 1443.88,-133.92 1443.88,-133.92 1443.88,-141.83 1443.88,-141.83 1443.88,-145.79 1439.92,-149.75 1435.96,-149.75"/>
<text text-anchor="middle" x="1360.12" y="-132.45" font-family="Arial" font-size="14.00" fill="#cfffac">../1shared/const/routes.ts</text>
</g>
<!-- ../1shared/database/credentials.schema.ts&#45;&gt;../1shared/database/users.schema.ts -->
<g id="edge4" class="edge">
<title>../1shared/database/credentials.schema.ts&#45;&gt;../1shared/database/users.schema.ts</title>
<path fill="none" stroke="#757575" d="M1801.97,-97.88C1819.57,-97.88 1837.58,-97.88 1855.09,-97.88"/>
<polygon fill="#757575" stroke="#757575" points="1855.01,-101.38 1865.01,-97.88 1855.01,-94.38 1855.01,-101.38"/>
</g>
<!-- ../1shared/database/users.schema.ts&#45;&gt;../1shared/database/divisions.schema.ts -->
<g id="edge15" class="edge">
<title>../1shared/database/users.schema.ts&#45;&gt;../1shared/database/divisions.schema.ts</title>
<path fill="none" stroke="#757575" d="M2091.04,-110.23C2105.77,-113.7 2120.49,-118.16 2134,-123.88 2152.18,-131.56 2151.93,-141.95 2170,-149.88 2179.66,-154.11 2190.05,-157.67 2200.56,-160.66"/>
<polygon fill="#757575" stroke="#757575" points="2199.52,-164 2210.08,-163.18 2201.31,-157.23 2199.52,-164"/>
</g>
<!-- ../1shared/database/users.schema.ts&#45;&gt;../2entities/user/lib/const.ts -->
<g id="edge16" class="edge">
<title>../1shared/database/users.schema.ts&#45;&gt;../2entities/user/lib/const.ts</title>
<path fill="none" stroke="#757575" d="M2086.17,-110.24C2238.06,-129.12 2526.15,-164.95 2677.07,-183.71"/>
<polygon fill="#757575" stroke="#757575" points="2676.28,-187.14 2686.64,-184.9 2677.15,-180.2 2676.28,-187.14"/>
</g>
<!-- ../1shared/database/users.schema.ts&#45;&gt;../2entities/user/model/user.types.ts -->
<g id="edge17" class="edge">
<title>../1shared/database/users.schema.ts&#45;&gt;../2entities/user/model/user.types.ts</title>
<path fill="none" stroke="#757575" d="M2105.03,-100.42C2193.7,-102.95 2317.98,-107.81 2426.75,-116.88 2635.84,-134.3 2687.25,-147.36 2895.25,-174.88 2912.05,-177.1 2929.9,-179.54 2947.19,-181.95"/>
<polygon fill="#757575" stroke="#757575" points="2946.57,-185.4 2956.96,-183.32 2947.54,-178.46 2946.57,-185.4"/>
</g>
<!-- ../1shared/database/ppr.schema.ts&#45;&gt;../1shared/database/commonWorks.schema.ts -->
<g id="edge10" class="edge">
<title>../1shared/database/ppr.schema.ts&#45;&gt;../1shared/database/commonWorks.schema.ts</title>
<path fill="none" stroke="#757575" d="M1727.54,-248.24C1760.07,-254.84 1800.94,-263 1837.5,-269.88 1858.26,-273.78 1880.7,-277.83 1901.66,-281.54"/>
<polygon fill="#757575" stroke="#757575" points="1900.85,-284.95 1911.3,-283.24 1902.06,-278.06 1900.85,-284.95"/>
</g>
<!-- ../1shared/database/ppr.schema.ts&#45;&gt;../1shared/database/users.schema.ts -->
<g id="edge12" class="edge">
<title>../1shared/database/ppr.schema.ts&#45;&gt;../1shared/database/users.schema.ts</title>
<path fill="none" stroke="#757575" d="M1695.67,-223.56C1729.43,-208.88 1787.58,-183.58 1837.5,-161.88 1874.38,-145.84 1916.46,-127.55 1946.17,-114.64"/>
<polygon fill="#757575" stroke="#757575" points="1947.36,-117.94 1955.13,-110.75 1944.57,-111.52 1947.36,-117.94"/>
</g>
<!-- ../1shared/database/ppr.schema.ts&#45;&gt;../1shared/database/divisions.schema.ts -->
<g id="edge11" class="edge">
<title>../1shared/database/ppr.schema.ts&#45;&gt;../1shared/database/divisions.schema.ts</title>
<path fill="none" stroke="#757575" d="M1708.54,-223.56C1742.73,-213.92 1792.82,-201.12 1837.5,-194.88 1944.62,-179.9 2067.02,-175.45 2158.6,-174.58"/>
<polygon fill="#757575" stroke="#757575" points="2158.41,-178.08 2168.39,-174.5 2158.36,-171.08 2158.41,-178.08"/>
</g>
<!-- ../2entities/ppr/lib/constFields.ts -->
<g id="node13" class="node">
<title>../2entities/ppr/lib/constFields.ts</title>
<path fill="none" stroke="#ff6c60" d="M2079.96,-227.75C2079.96,-227.75 1891.54,-227.75 1891.54,-227.75 1887.58,-227.75 1883.62,-223.79 1883.62,-219.83 1883.62,-219.83 1883.62,-211.92 1883.62,-211.92 1883.62,-207.96 1887.58,-204 1891.54,-204 1891.54,-204 2079.96,-204 2079.96,-204 2083.92,-204 2087.88,-207.96 2087.88,-211.92 2087.88,-211.92 2087.88,-219.83 2087.88,-219.83 2087.88,-223.79 2083.92,-227.75 2079.96,-227.75"/>
<text text-anchor="middle" x="1985.75" y="-210.45" font-family="Arial" font-size="14.00" fill="#ff6c60">../2entities/ppr/lib/constFields.ts</text>
</g>
<!-- ../1shared/database/ppr.schema.ts&#45;&gt;../2entities/ppr/lib/constFields.ts -->
<g id="edge13" class="edge">
<title>../1shared/database/ppr.schema.ts&#45;&gt;../2entities/ppr/lib/constFields.ts</title>
<path fill="none" stroke="#757575" d="M1778.38,-228.88C1808.79,-226.96 1841.77,-224.89 1872.26,-222.96"/>
<polygon fill="#757575" stroke="#757575" points="1872.1,-226.48 1881.86,-222.36 1871.66,-219.49 1872.1,-226.48"/>
</g>
<!-- ../2entities/ppr/model/ppr.types.ts -->
<g id="node14" class="node">
<title>../2entities/ppr/model/ppr.types.ts</title>
<path fill="none" stroke="#ff6c60" d="M2397.83,-267.75C2397.83,-267.75 2198.92,-267.75 2198.92,-267.75 2194.96,-267.75 2191,-263.79 2191,-259.83 2191,-259.83 2191,-251.92 2191,-251.92 2191,-247.96 2194.96,-244 2198.92,-244 2198.92,-244 2397.83,-244 2397.83,-244 2401.79,-244 2405.75,-247.96 2405.75,-251.92 2405.75,-251.92 2405.75,-259.83 2405.75,-259.83 2405.75,-263.79 2401.79,-267.75 2397.83,-267.75"/>
<text text-anchor="middle" x="2298.38" y="-250.45" font-family="Arial" font-size="14.00" fill="#ff6c60">../2entities/ppr/model/ppr.types.ts</text>
</g>
<!-- ../1shared/database/ppr.schema.ts&#45;&gt;../2entities/ppr/model/ppr.types.ts -->
<g id="edge14" class="edge">
<title>../1shared/database/ppr.schema.ts&#45;&gt;../2entities/ppr/model/ppr.types.ts</title>
<path fill="none" stroke="#757575" d="M1778.56,-239.4C1891.11,-242.98 2064.52,-248.48 2179.44,-252.13"/>
<polygon fill="#757575" stroke="#757575" points="2179.1,-255.62 2189.21,-252.44 2179.32,-248.63 2179.1,-255.62"/>
</g>
<!-- ../2entities/ppr/lib/constFields.ts&#45;&gt;../1shared/const/date.ts -->
<g id="edge25" class="edge">
<title>../2entities/ppr/lib/constFields.ts&#45;&gt;../1shared/const/date.ts</title>
<path fill="none" stroke="#757575" d="M2088.34,-219.54C2192.43,-223.3 2352.67,-229.09 2451.84,-232.67"/>
<polygon fill="#757575" stroke="#757575" points="2451.69,-236.17 2461.81,-233.03 2451.94,-229.17 2451.69,-236.17"/>
</g>
<!-- ../2entities/ppr/lib/constFields.ts&#45;&gt;../2entities/ppr/model/ppr.types.ts -->
<g id="edge26" class="edge">
<title>../2entities/ppr/lib/constFields.ts&#45;&gt;../2entities/ppr/model/ppr.types.ts</title>
<path fill="none" stroke="#757575" d="M2082.48,-228.2C2116.58,-232.59 2155.2,-237.57 2190.2,-242.07"/>
<polygon fill="#757575" stroke="#757575" points="2189.56,-245.52 2199.92,-243.33 2190.45,-238.58 2189.56,-245.52"/>
</g>
<!-- ../2entities/ppr/model/ppr.types.ts&#45;&gt;../2entities/user/index.ts -->
<g id="edge28" class="edge">
<title>../2entities/ppr/model/ppr.types.ts&#45;&gt;../2entities/user/index.ts</title>
<path fill="none" stroke="#757575" d="M2349.07,-268.23C2387.02,-277.67 2439.5,-290.72 2479.93,-300.78"/>
<polygon fill="#757575" stroke="#757575" points="2478.98,-304.15 2489.53,-303.17 2480.67,-297.36 2478.98,-304.15"/>
</g>
<!-- ../2entities/ppr/model/ppr.types.ts&#45;&gt;../1shared/const/date.ts -->
<g id="edge27" class="edge">
<title>../2entities/ppr/model/ppr.types.ts&#45;&gt;../1shared/const/date.ts</title>
<path fill="none" stroke="#757575" d="M2406.24,-247.02C2421.51,-245.75 2437.07,-244.46 2451.94,-243.23"/>
<polygon fill="#757575" stroke="#757575" points="2451.97,-246.74 2461.65,-242.42 2451.39,-239.76 2451.97,-246.74"/>
</g>
<!-- ../2entities/user/lib/const.ts&#45;&gt;../2entities/user/model/user.types.ts -->
<g id="edge32" class="edge">
<title>../2entities/user/lib/const.ts&#45;&gt;../2entities/user/model/user.types.ts</title>
<path fill="none" stroke="#757575" d="M2863.72,-195.88C2881.62,-195.88 2900.8,-195.88 2919.74,-195.88"/>
<polygon fill="#757575" stroke="#757575" points="2919.65,-199.38 2929.65,-195.88 2919.65,-192.38 2919.65,-199.38"/>
</g>
<!-- ../1shared/locale/notification.ts -->
<g id="node17" class="node">
<title>../1shared/locale/notification.ts</title>
<path fill="none" stroke="#ff6c60" d="M1132.33,-210.75C1132.33,-210.75 950.67,-210.75 950.67,-210.75 946.71,-210.75 942.75,-206.79 942.75,-202.83 942.75,-202.83 942.75,-194.92 942.75,-194.92 942.75,-190.96 946.71,-187 950.67,-187 950.67,-187 1132.33,-187 1132.33,-187 1136.29,-187 1140.25,-190.96 1140.25,-194.92 1140.25,-194.92 1140.25,-202.83 1140.25,-202.83 1140.25,-206.79 1136.29,-210.75 1132.33,-210.75"/>
<text text-anchor="middle" x="1041.5" y="-193.45" font-family="Arial" font-size="14.00" fill="#ff6c60">../1shared/locale/notification.ts</text>
</g>
<!-- ../1shared/providers/notificationProvider/index.ts -->
<g id="node18" class="node">
<title>../1shared/providers/notificationProvider/index.ts</title>
<path fill="none" stroke="#ff6c60" d="M405.08,-191.75C405.08,-191.75 116.92,-191.75 116.92,-191.75 112.96,-191.75 109,-187.79 109,-183.83 109,-183.83 109,-175.92 109,-175.92 109,-171.96 112.96,-168 116.92,-168 116.92,-168 405.08,-168 405.08,-168 409.04,-168 413,-171.96 413,-175.92 413,-175.92 413,-183.83 413,-183.83 413,-187.79 409.04,-191.75 405.08,-191.75"/>
<text text-anchor="middle" x="261" y="-174.45" font-family="Arial" font-size="14.00" fill="#ff6c60">../1shared/providers/notificationProvider/index.ts</text>
</g>
<!-- ../1shared/locale/notification.ts&#45;&gt;../1shared/providers/notificationProvider/index.ts -->
<g id="edge18" class="edge">
<title>../1shared/locale/notification.ts&#45;&gt;../1shared/providers/notificationProvider/index.ts</title>
<path fill="none" stroke="#757575" d="M942.29,-202.76C824.85,-206.59 622.41,-210.58 449,-200.88 421.62,-199.34 392.09,-196.56 364.77,-193.51"/>
<polygon fill="#757575" stroke="#757575" points="365.45,-190.06 355.12,-192.4 364.65,-197.02 365.45,-190.06"/>
</g>
<!-- ../1shared/providers/notificationProvider/ui/NotificationProvider.tsx -->
<g id="node19" class="node">
<title>../1shared/providers/notificationProvider/ui/NotificationProvider.tsx</title>
<path fill="none" stroke="#ff6c60" d="M850.08,-191.75C850.08,-191.75 456.92,-191.75 456.92,-191.75 452.96,-191.75 449,-187.79 449,-183.83 449,-183.83 449,-175.92 449,-175.92 449,-171.96 452.96,-168 456.92,-168 456.92,-168 850.08,-168 850.08,-168 854.04,-168 858,-171.96 858,-175.92 858,-175.92 858,-183.83 858,-183.83 858,-187.79 854.04,-191.75 850.08,-191.75"/>
<text text-anchor="middle" x="653.5" y="-174.45" font-family="Arial" font-size="14.00" fill="#ff6c60">../1shared/providers/notificationProvider/ui/NotificationProvider.tsx</text>
</g>
<!-- ../1shared/providers/notificationProvider/index.ts&#45;&gt;../1shared/providers/notificationProvider/ui/NotificationProvider.tsx -->
<g id="edge19" class="edge">
<title>../1shared/providers/notificationProvider/index.ts&#45;&gt;../1shared/providers/notificationProvider/ui/NotificationProvider.tsx</title>
<path fill="none" stroke="#757575" d="M413.26,-179.88C421.2,-179.88 429.25,-179.88 437.35,-179.88"/>
<polygon fill="#757575" stroke="#757575" points="437.3,-183.38 447.3,-179.88 437.3,-176.38 437.3,-183.38"/>
</g>
<!-- ../1shared/providers/notificationProvider/ui/NotificationProvider.tsx&#45;&gt;../1shared/locale/notification.ts -->
<g id="edge20" class="edge">
<title>../1shared/providers/notificationProvider/ui/NotificationProvider.tsx&#45;&gt;../1shared/locale/notification.ts</title>
<path fill="none" stroke="#757575" d="M858.24,-189.9C883.35,-191.14 908.23,-192.36 931.15,-193.49"/>
<polygon fill="#757575" stroke="#757575" points="930.92,-196.99 941.08,-193.98 931.26,-189.99 930.92,-196.99"/>
</g>
<!-- ../1shared/providers/sessionProvider/index.ts -->
<g id="node20" class="node">
<title>../1shared/providers/sessionProvider/index.ts</title>
<path fill="none" stroke="#c6c5fe" d="M395.71,-149.75C395.71,-149.75 126.29,-149.75 126.29,-149.75 122.33,-149.75 118.38,-145.79 118.38,-141.83 118.38,-141.83 118.38,-133.92 118.38,-133.92 118.38,-129.96 122.33,-126 126.29,-126 126.29,-126 395.71,-126 395.71,-126 399.67,-126 403.62,-129.96 403.62,-133.92 403.62,-133.92 403.62,-141.83 403.62,-141.83 403.62,-145.79 399.67,-149.75 395.71,-149.75"/>
<text text-anchor="middle" x="261" y="-132.45" font-family="Arial" font-size="14.00" fill="#c6c5fe">../1shared/providers/sessionProvider/index.ts</text>
</g>
<!-- ../1shared/providers/sessionProvider/ui/SessionProvider.tsx -->
<g id="node21" class="node">
<title>../1shared/providers/sessionProvider/ui/SessionProvider.tsx</title>
<path fill="none" stroke="#cfffac" d="M831.33,-149.75C831.33,-149.75 475.67,-149.75 475.67,-149.75 471.71,-149.75 467.75,-145.79 467.75,-141.83 467.75,-141.83 467.75,-133.92 467.75,-133.92 467.75,-129.96 471.71,-126 475.67,-126 475.67,-126 831.33,-126 831.33,-126 835.29,-126 839.25,-129.96 839.25,-133.92 839.25,-133.92 839.25,-141.83 839.25,-141.83 839.25,-145.79 835.29,-149.75 831.33,-149.75"/>
<text text-anchor="middle" x="653.5" y="-132.45" font-family="Arial" font-size="14.00" fill="#cfffac">../1shared/providers/sessionProvider/ui/SessionProvider.tsx</text>
</g>
<!-- ../1shared/providers/sessionProvider/index.ts&#45;&gt;../1shared/providers/sessionProvider/ui/SessionProvider.tsx -->
<g id="edge21" class="edge">
<title>../1shared/providers/sessionProvider/index.ts&#45;&gt;../1shared/providers/sessionProvider/ui/SessionProvider.tsx</title>
<path fill="none" stroke="#757575" d="M404.08,-137.88C420.99,-137.88 438.47,-137.88 455.96,-137.88"/>
<polygon fill="#757575" stroke="#757575" points="455.94,-141.38 465.94,-137.88 455.94,-134.38 455.94,-141.38"/>
</g>
<!-- ../2entities/login/model/credentials.actions.ts&#45;&gt;../1shared/database/index.ts -->
<g id="edge23" class="edge">
<title>../2entities/login/model/credentials.actions.ts&#45;&gt;../1shared/database/index.ts</title>
<path fill="none" stroke="#757575" d="M1182.3,-249.88C1206.93,-249.88 1232.16,-249.88 1255.58,-249.88"/>
<polygon fill="#757575" stroke="#757575" points="1255.4,-253.38 1265.4,-249.88 1255.4,-246.38 1255.4,-253.38"/>
</g>
<!-- ../2entities/login/model/credentials.types.ts -->
<g id="node23" class="node">
<title>../2entities/login/model/credentials.types.ts</title>
<path fill="none" stroke="#cfffac" d="M1487.33,-219.75C1487.33,-219.75 1232.92,-219.75 1232.92,-219.75 1228.96,-219.75 1225,-215.79 1225,-211.83 1225,-211.83 1225,-203.92 1225,-203.92 1225,-199.96 1228.96,-196 1232.92,-196 1232.92,-196 1487.33,-196 1487.33,-196 1491.29,-196 1495.25,-199.96 1495.25,-203.92 1495.25,-203.92 1495.25,-211.83 1495.25,-211.83 1495.25,-215.79 1491.29,-219.75 1487.33,-219.75"/>
<text text-anchor="middle" x="1360.12" y="-202.45" font-family="Arial" font-size="14.00" fill="#cfffac">../2entities/login/model/credentials.types.ts</text>
</g>
<!-- ../2entities/login/model/credentials.actions.ts&#45;&gt;../2entities/login/model/credentials.types.ts -->
<g id="edge24" class="edge">
<title>../2entities/login/model/credentials.actions.ts&#45;&gt;../2entities/login/model/credentials.types.ts</title>
<path fill="none" stroke="#757575" d="M1135.79,-237.5C1173.14,-232.55 1216.34,-226.81 1254.74,-221.72"/>
<polygon fill="#757575" stroke="#757575" points="1255.01,-225.22 1264.46,-220.43 1254.09,-218.28 1255.01,-225.22"/>
</g>
<!-- ../2entities/user/model/user.actions.ts&#45;&gt;../1shared/api/divisions.api.ts -->
<g id="edge33" class="edge">
<title>../2entities/user/model/user.actions.ts&#45;&gt;../1shared/api/divisions.api.ts</title>
<path fill="none" stroke="#757575" d="M2729.03,-348.17C2644.66,-369.68 2458.84,-411.88 2299.38,-411.88 1984.75,-411.88 1984.75,-411.88 1984.75,-411.88 1668.03,-411.88 1294.24,-359.75 1128.75,-333.97"/>
<polygon fill="#757575" stroke="#757575" points="1129.59,-330.56 1119.17,-332.47 1128.51,-337.47 1129.59,-330.56"/>
</g>
<!-- ../2entities/user/model/user.actions.ts&#45;&gt;../1shared/database/index.ts -->
<g id="edge34" class="edge">
<title>../2entities/user/model/user.actions.ts&#45;&gt;../1shared/database/index.ts</title>
<path fill="none" stroke="#757575" d="M2656.3,-337.32C2597.99,-337.76 2526.68,-337.9 2462.75,-336.88 2048.21,-330.25 1940.82,-351.25 1531.25,-286.88 1494.52,-281.1 1453.82,-272.34 1421.43,-264.78"/>
<polygon fill="#757575" stroke="#757575" points="1422.35,-261.41 1411.82,-262.52 1420.75,-268.22 1422.35,-261.41"/>
</g>
<!-- ../2entities/user/model/user.actions.ts&#45;&gt;../2entities/user/index.ts -->
<g id="edge35" class="edge">
<title>../2entities/user/model/user.actions.ts&#45;&gt;../2entities/user/index.ts</title>
<path fill="none" stroke="#757575" d="M2656.13,-332.4C2645.48,-331.47 2634.86,-330.47 2624.62,-329.42"/>
<polygon fill="#757575" stroke="#757575" points="2625.07,-325.95 2614.76,-328.38 2624.34,-332.91 2625.07,-325.95"/>
</g>
<!-- ../3features/loginUser/index.ts -->
<g id="node25" class="node">
<title>../3features/loginUser/index.ts</title>
<path fill="none" stroke="#c6c5fe" d="M1130.83,-65.75C1130.83,-65.75 952.17,-65.75 952.17,-65.75 948.21,-65.75 944.25,-61.79 944.25,-57.83 944.25,-57.83 944.25,-49.92 944.25,-49.92 944.25,-45.96 948.21,-42 952.17,-42 952.17,-42 1130.83,-42 1130.83,-42 1134.79,-42 1138.75,-45.96 1138.75,-49.92 1138.75,-49.92 1138.75,-57.83 1138.75,-57.83 1138.75,-61.79 1134.79,-65.75 1130.83,-65.75"/>
<text text-anchor="middle" x="1041.5" y="-48.45" font-family="Arial" font-size="14.00" fill="#c6c5fe">../3features/loginUser/index.ts</text>
</g>
<!-- ../3features/loginUser/ui/LoginForm.tsx -->
<g id="node26" class="node">
<title>../3features/loginUser/ui/LoginForm.tsx</title>
<path fill="none" stroke="#cfffac" d="M1476.46,-65.75C1476.46,-65.75 1243.79,-65.75 1243.79,-65.75 1239.83,-65.75 1235.88,-61.79 1235.88,-57.83 1235.88,-57.83 1235.88,-49.92 1235.88,-49.92 1235.88,-45.96 1239.83,-42 1243.79,-42 1243.79,-42 1476.46,-42 1476.46,-42 1480.42,-42 1484.38,-45.96 1484.38,-49.92 1484.38,-49.92 1484.38,-57.83 1484.38,-57.83 1484.38,-61.79 1480.42,-65.75 1476.46,-65.75"/>
<text text-anchor="middle" x="1360.12" y="-48.45" font-family="Arial" font-size="14.00" fill="#cfffac">../3features/loginUser/ui/LoginForm.tsx</text>
</g>
<!-- ../3features/loginUser/index.ts&#45;&gt;../3features/loginUser/ui/LoginForm.tsx -->
<g id="edge36" class="edge">
<title>../3features/loginUser/index.ts&#45;&gt;../3features/loginUser/ui/LoginForm.tsx</title>
<path fill="none" stroke="#757575" d="M1139.22,-53.88C1166.03,-53.88 1195.63,-53.88 1224.2,-53.88"/>
<polygon fill="#757575" stroke="#757575" points="1224,-57.38 1234,-53.88 1224,-50.38 1224,-57.38"/>
</g>
<!-- ../4widgets/layouts/index.ts -->
<g id="node27" class="node">
<title>../4widgets/layouts/index.ts</title>
<path fill="none" stroke="#c6c5fe" d="M341.71,-107.75C341.71,-107.75 180.29,-107.75 180.29,-107.75 176.33,-107.75 172.38,-103.79 172.38,-99.83 172.38,-99.83 172.38,-91.92 172.38,-91.92 172.38,-87.96 176.33,-84 180.29,-84 180.29,-84 341.71,-84 341.71,-84 345.67,-84 349.62,-87.96 349.62,-91.92 349.62,-91.92 349.62,-99.83 349.62,-99.83 349.62,-103.79 345.67,-107.75 341.71,-107.75"/>
<text text-anchor="middle" x="261" y="-90.45" font-family="Arial" font-size="14.00" fill="#c6c5fe">../4widgets/layouts/index.ts</text>
</g>
<!-- ../4widgets/layouts/ui/MainLayout.tsx -->
<g id="node28" class="node">
<title>../4widgets/layouts/ui/MainLayout.tsx</title>
<path fill="none" stroke="#c6c5fe" d="M763.83,-107.75C763.83,-107.75 543.17,-107.75 543.17,-107.75 539.21,-107.75 535.25,-103.79 535.25,-99.83 535.25,-99.83 535.25,-91.92 535.25,-91.92 535.25,-87.96 539.21,-84 543.17,-84 543.17,-84 763.83,-84 763.83,-84 767.79,-84 771.75,-87.96 771.75,-91.92 771.75,-91.92 771.75,-99.83 771.75,-99.83 771.75,-103.79 767.79,-107.75 763.83,-107.75"/>
<text text-anchor="middle" x="653.5" y="-90.45" font-family="Arial" font-size="14.00" fill="#c6c5fe">../4widgets/layouts/ui/MainLayout.tsx</text>
</g>
<!-- ../4widgets/layouts/index.ts&#45;&gt;../4widgets/layouts/ui/MainLayout.tsx -->
<g id="edge37" class="edge">
<title>../4widgets/layouts/index.ts&#45;&gt;../4widgets/layouts/ui/MainLayout.tsx</title>
<path fill="none" stroke="#757575" d="M350.12,-95.88C401.37,-95.88 466.88,-95.88 523.81,-95.88"/>
<polygon fill="#757575" stroke="#757575" points="523.56,-99.38 533.56,-95.88 523.56,-92.38 523.56,-99.38"/>
</g>
<!-- ../4widgets/layouts/ui/MainLayout.module.scss -->
<g id="node29" class="node">
<title>../4widgets/layouts/ui/MainLayout.module.scss</title>
<path fill="none" stroke="#cfffac" d="M1181.08,-107.75C1181.08,-107.75 901.92,-107.75 901.92,-107.75 897.96,-107.75 894,-103.79 894,-99.83 894,-99.83 894,-91.92 894,-91.92 894,-87.96 897.96,-84 901.92,-84 901.92,-84 1181.08,-84 1181.08,-84 1185.04,-84 1189,-87.96 1189,-91.92 1189,-91.92 1189,-99.83 1189,-99.83 1189,-103.79 1185.04,-107.75 1181.08,-107.75"/>
<text text-anchor="middle" x="1041.5" y="-90.45" font-family="Arial" font-size="14.00" fill="#cfffac">../4widgets/layouts/ui/MainLayout.module.scss</text>
</g>
<!-- ../4widgets/layouts/ui/MainLayout.tsx&#45;&gt;../4widgets/layouts/ui/MainLayout.module.scss -->
<g id="edge38" class="edge">
<title>../4widgets/layouts/ui/MainLayout.tsx&#45;&gt;../4widgets/layouts/ui/MainLayout.module.scss</title>
<path fill="none" stroke="#757575" d="M772.15,-95.88C806.91,-95.88 845.55,-95.88 882.43,-95.88"/>
<polygon fill="#757575" stroke="#757575" points="882.3,-99.38 892.3,-95.88 882.3,-92.38 882.3,-99.38"/>
</g>
<!-- ../4widgets/layouts/ui/MainLayoutSider.tsx -->
<g id="node30" class="node">
<title>../4widgets/layouts/ui/MainLayoutSider.tsx</title>
<path fill="none" stroke="#c6c5fe" d="M1167.21,-149.75C1167.21,-149.75 915.79,-149.75 915.79,-149.75 911.83,-149.75 907.88,-145.79 907.88,-141.83 907.88,-141.83 907.88,-133.92 907.88,-133.92 907.88,-129.96 911.83,-126 915.79,-126 915.79,-126 1167.21,-126 1167.21,-126 1171.17,-126 1175.12,-129.96 1175.12,-133.92 1175.12,-133.92 1175.12,-141.83 1175.12,-141.83 1175.12,-145.79 1171.17,-149.75 1167.21,-149.75"/>
<text text-anchor="middle" x="1041.5" y="-132.45" font-family="Arial" font-size="14.00" fill="#c6c5fe">../4widgets/layouts/ui/MainLayoutSider.tsx</text>
</g>
<!-- ../4widgets/layouts/ui/MainLayout.tsx&#45;&gt;../4widgets/layouts/ui/MainLayoutSider.tsx -->
<g id="edge39" class="edge">
<title>../4widgets/layouts/ui/MainLayout.tsx&#45;&gt;../4widgets/layouts/ui/MainLayoutSider.tsx</title>
<path fill="none" stroke="#757575" d="M772.09,-107.77C800.24,-110.69 830.2,-113.84 858,-116.88 879.19,-119.19 901.76,-121.72 923.54,-124.21"/>
<polygon fill="#757575" stroke="#757575" points="923.01,-127.67 933.35,-125.33 923.81,-120.72 923.01,-127.67"/>
</g>
<!-- ../4widgets/layouts/ui/MainLayoutSider.tsx&#45;&gt;../1shared/const/routes.ts -->
<g id="edge40" class="edge">
<title>../4widgets/layouts/ui/MainLayoutSider.tsx&#45;&gt;../1shared/const/routes.ts</title>
<path fill="none" stroke="#757575" d="M1175.4,-137.88C1205.45,-137.88 1236.75,-137.88 1264.82,-137.88"/>
<polygon fill="#757575" stroke="#757575" points="1264.71,-141.38 1274.71,-137.88 1264.71,-134.38 1264.71,-141.38"/>
</g>
<!-- ../5pages/loginPage/index.ts -->
<g id="node31" class="node">
<title>../5pages/loginPage/index.ts</title>
<path fill="none" stroke="#c6c5fe" d="M345.83,-65.75C345.83,-65.75 176.17,-65.75 176.17,-65.75 172.21,-65.75 168.25,-61.79 168.25,-57.83 168.25,-57.83 168.25,-49.92 168.25,-49.92 168.25,-45.96 172.21,-42 176.17,-42 176.17,-42 345.83,-42 345.83,-42 349.79,-42 353.75,-45.96 353.75,-49.92 353.75,-49.92 353.75,-57.83 353.75,-57.83 353.75,-61.79 349.79,-65.75 345.83,-65.75"/>
<text text-anchor="middle" x="261" y="-48.45" font-family="Arial" font-size="14.00" fill="#c6c5fe">../5pages/loginPage/index.ts</text>
</g>
<!-- ../5pages/loginPage/ui/LoginPage.tsx -->
<g id="node32" class="node">
<title>../5pages/loginPage/ui/LoginPage.tsx</title>
<path fill="none" stroke="#c6c5fe" d="M764.96,-65.75C764.96,-65.75 542.04,-65.75 542.04,-65.75 538.08,-65.75 534.12,-61.79 534.12,-57.83 534.12,-57.83 534.12,-49.92 534.12,-49.92 534.12,-45.96 538.08,-42 542.04,-42 542.04,-42 764.96,-42 764.96,-42 768.92,-42 772.88,-45.96 772.88,-49.92 772.88,-49.92 772.88,-57.83 772.88,-57.83 772.88,-61.79 768.92,-65.75 764.96,-65.75"/>
<text text-anchor="middle" x="653.5" y="-48.45" font-family="Arial" font-size="14.00" fill="#c6c5fe">../5pages/loginPage/ui/LoginPage.tsx</text>
</g>
<!-- ../5pages/loginPage/index.ts&#45;&gt;../5pages/loginPage/ui/LoginPage.tsx -->
<g id="edge41" class="edge">
<title>../5pages/loginPage/index.ts&#45;&gt;../5pages/loginPage/ui/LoginPage.tsx</title>
<path fill="none" stroke="#757575" d="M354.05,-53.88C404.26,-53.88 467.24,-53.88 522.39,-53.88"/>
<polygon fill="#757575" stroke="#757575" points="522.16,-57.38 532.16,-53.88 522.16,-50.38 522.16,-57.38"/>
</g>
<!-- ../5pages/loginPage/ui/LoginPage.tsx&#45;&gt;../3features/loginUser/index.ts -->
<g id="edge42" class="edge">
<title>../5pages/loginPage/ui/LoginPage.tsx&#45;&gt;../3features/loginUser/index.ts</title>
<path fill="none" stroke="#757575" d="M773.2,-53.88C823.97,-53.88 882.84,-53.88 932.39,-53.88"/>
<polygon fill="#757575" stroke="#757575" points="932.27,-57.38 942.27,-53.88 932.27,-50.38 932.27,-57.38"/>
</g>
<!-- globals.scss -->
<g id="node33" class="node">
<title>globals.scss</title>
<path fill="none" stroke="#cfffac" d="M297.83,-23.75C297.83,-23.75 224.17,-23.75 224.17,-23.75 220.21,-23.75 216.25,-19.79 216.25,-15.83 216.25,-15.83 216.25,-7.92 216.25,-7.92 216.25,-3.96 220.21,0 224.17,0 224.17,0 297.83,0 297.83,0 301.79,0 305.75,-3.96 305.75,-7.92 305.75,-7.92 305.75,-15.83 305.75,-15.83 305.75,-19.79 301.79,-23.75 297.83,-23.75"/>
<text text-anchor="middle" x="261" y="-6.45" font-family="Arial" font-size="14.00" fill="#cfffac">globals.scss</text>
</g>
<!-- layout.tsx -->
<g id="node34" class="node">
<title>layout.tsx</title>
<path fill="none" stroke="#c6c5fe" d="M65.08,-128.75C65.08,-128.75 7.92,-128.75 7.92,-128.75 3.96,-128.75 0,-124.79 0,-120.83 0,-120.83 0,-112.92 0,-112.92 0,-108.96 3.96,-105 7.92,-105 7.92,-105 65.08,-105 65.08,-105 69.04,-105 73,-108.96 73,-112.92 73,-112.92 73,-120.83 73,-120.83 73,-124.79 69.04,-128.75 65.08,-128.75"/>
<text text-anchor="middle" x="36.5" y="-111.45" font-family="Arial" font-size="14.00" fill="#c6c5fe">layout.tsx</text>
</g>
<!-- layout.tsx&#45;&gt;../1shared/auth/authConfig.ts -->
<g id="edge43" class="edge">
<title>layout.tsx&#45;&gt;../1shared/auth/authConfig.ts</title>
<path fill="none" stroke="#757575" d="M45.05,-129.1C56.72,-147.1 80.77,-180.76 109,-200.88 136.44,-220.43 171.23,-234.59 200.51,-244.14"/>
<polygon fill="#757575" stroke="#757575" points="199.39,-247.46 209.98,-247.12 201.49,-240.78 199.39,-247.46"/>
</g>
<!-- layout.tsx&#45;&gt;../1shared/providers/notificationProvider/index.ts -->
<g id="edge44" class="edge">
<title>layout.tsx&#45;&gt;../1shared/providers/notificationProvider/index.ts</title>
<path fill="none" stroke="#757575" d="M53.91,-129.06C67.84,-138.76 88.74,-151.83 109,-158.88 115.48,-161.13 122.2,-163.14 129.03,-164.94"/>
<polygon fill="#757575" stroke="#757575" points="127.85,-168.25 138.39,-167.23 129.51,-161.45 127.85,-168.25"/>
</g>
<!-- layout.tsx&#45;&gt;../1shared/providers/sessionProvider/index.ts -->
<g id="edge45" class="edge">
<title>layout.tsx&#45;&gt;../1shared/providers/sessionProvider/index.ts</title>
<path fill="none" stroke="#757575" d="M73.25,-120.25C86.02,-121.45 101.32,-122.9 117.57,-124.43"/>
<polygon fill="#757575" stroke="#757575" points="117.17,-127.91 127.46,-125.37 117.83,-120.94 117.17,-127.91"/>
</g>
<!-- layout.tsx&#45;&gt;../4widgets/layouts/index.ts -->
<g id="edge46" class="edge">
<title>layout.tsx&#45;&gt;../4widgets/layouts/index.ts</title>
<path fill="none" stroke="#757575" d="M73.25,-113.5C96.99,-111.26 129.42,-108.2 160.59,-105.26"/>
<polygon fill="#757575" stroke="#757575" points="160.87,-108.75 170.49,-104.32 160.21,-101.78 160.87,-108.75"/>
</g>
<!-- layout.tsx&#45;&gt;../5pages/loginPage/index.ts -->
<g id="edge47" class="edge">
<title>layout.tsx&#45;&gt;../5pages/loginPage/index.ts</title>
<path fill="none" stroke="#757575" d="M53.91,-104.69C67.84,-94.99 88.74,-81.92 109,-74.88 124.13,-69.61 140.55,-65.67 156.8,-62.7"/>
<polygon fill="#757575" stroke="#757575" points="157.24,-66.18 166.51,-61.06 156.07,-59.28 157.24,-66.18"/>
</g>
<!-- layout.tsx&#45;&gt;globals.scss -->
<g id="edge48" class="edge">
<title>layout.tsx&#45;&gt;globals.scss</title>
<path fill="none" stroke="#757575" d="M43.96,-104.7C54.69,-85.81 78.11,-49.83 109,-32.88 138.01,-16.95 174.7,-11.58 204.65,-10.24"/>
<polygon fill="#757575" stroke="#757575" points="204.36,-13.75 214.26,-9.96 204.16,-6.75 204.36,-13.75"/>
</g>
</g>
</svg>
